<svg width="25" height="30" viewBox="0 0 25 30" fill="none" xmlns="http://www.w3.org/2000/svg">
<path d="M16.0236 28.4613C16.0236 28.8694 15.8645 29.2608 15.5813 29.5493C15.2981 29.8379 14.914 30 14.5135 30H10.4864C10.0859 30 9.70178 29.8379 9.41857 29.5493C9.13536 29.2608 8.97626 28.8694 8.97626 28.4613C8.97626 28.0532 9.13536 27.6618 9.41857 27.3732C9.70178 27.0847 10.0859 26.9226 10.4864 26.9226H14.5135C14.914 26.9226 15.2981 27.0847 15.5813 27.3732C15.8645 27.6618 16.0236 28.0532 16.0236 28.4613ZM24.9412 19.5421L23.3854 26.6756C23.294 27.1013 23.0971 27.496 22.8133 27.8221C22.5296 28.1482 22.1686 28.3947 21.7647 28.5381C21.4946 28.6354 21.2102 28.6853 20.9237 28.6856C20.3534 28.6851 19.8004 28.4861 19.3562 28.1217L15.9973 25.3839H9.00256L5.64372 28.1219C5.19945 28.4862 4.64645 28.685 4.07618 28.6856C3.78967 28.6853 3.50527 28.6354 3.23515 28.5381C2.83129 28.3947 2.47025 28.1481 2.18653 27.822C1.9028 27.496 1.70586 27.1012 1.6145 26.6755L0.0586683 19.5419C-0.0236433 19.159 -0.0192902 18.7621 0.0713975 18.3813C0.162085 18.0004 0.336725 17.6456 0.582063 17.3438L4.20379 12.9155C4.33284 11.3505 4.68338 9.81267 5.24454 8.34989C6.76388 4.36359 9.45435 1.75752 10.9227 0.55886C11.3723 0.195133 11.93 -0.00194297 12.5041 1.44416e-05C13.0782 0.00197186 13.6345 0.202847 14.0817 0.569631C15.5313 1.76957 18.1874 4.37744 19.6916 8.36258C20.2345 9.79216 20.5795 11.2918 20.7166 12.8183L24.4178 17.3438C24.6632 17.6457 24.8379 18.0005 24.9286 18.3814C25.0193 18.7623 25.0237 19.1592 24.9414 19.5421H24.9412ZM8.0601 9.46392C6.54617 13.4357 6.98474 17.7525 9.36185 22.3064H15.629C17.9529 17.7552 18.3717 13.4396 16.8725 9.46713C15.6968 6.35225 13.6059 4.20856 12.4934 3.2284C11.3671 4.20651 9.24708 6.3493 8.0601 9.46405V9.46392ZM6.54075 23.4496C5.55783 21.5573 4.85162 19.5287 4.44453 17.4283L3.0606 19.1204L4.38765 25.2046L6.54075 23.4496ZM21.9393 19.1204L20.5087 17.3711C20.1166 19.4863 19.4232 21.5317 18.4507 23.4426L20.6122 25.2046L21.9393 19.1204ZM12.4999 13.587C12.8982 13.587 13.2875 13.4667 13.6186 13.2413C13.9497 13.0158 14.2078 12.6954 14.3602 12.3205C14.5126 11.9457 14.5525 11.5331 14.4748 11.1352C14.3971 10.7372 14.2053 10.3716 13.9237 10.0847C13.6421 9.79778 13.2834 9.60238 12.8928 9.52322C12.5022 9.44405 12.0973 9.48468 11.7294 9.63997C11.3615 9.79525 11.047 10.0582 10.8258 10.3956C10.6045 10.733 10.4864 11.1296 10.4864 11.5354C10.487 12.0794 10.6993 12.6008 11.0768 12.9855C11.4543 13.3701 11.9661 13.5864 12.4999 13.587Z" fill="#96D700"/>
</svg>
